<mxfile host="app.diagrams.net" modified="2021-12-02T12:11:15.427Z" agent="5.0 (Windows NT 10.0; Win64; x64) AppleWebKit/537.36 (KHTML, like Gecko) Chrome/96.0.4664.45 Safari/537.36" etag="leIUjMX25tTsiFvrmoCD" version="15.8.6" type="github">
  <diagram id="5gX_Z24nm6wcwljiHssE" name="Page-1">
    <mxGraphModel dx="2354" dy="762" grid="1" gridSize="10" guides="1" tooltips="1" connect="1" arrows="1" fold="1" page="1" pageScale="1" pageWidth="1169" pageHeight="827" math="0" shadow="0">
      <root>
        <mxCell id="0" />
        <mxCell id="1" parent="0" />
        <mxCell id="cTRyyOZCeq1RYRUuSw1o-1" value="Shared ProdVPC" style="sketch=0;outlineConnect=0;gradientColor=none;html=1;whiteSpace=wrap;fontSize=12;fontStyle=0;shape=mxgraph.aws4.group;grIcon=mxgraph.aws4.group_vpc;strokeColor=#879196;fillColor=none;verticalAlign=top;align=left;spacingLeft=30;fontColor=#879196;dashed=0;" parent="1" vertex="1">
          <mxGeometry x="-10" y="220" width="360" height="130" as="geometry" />
        </mxCell>
        <mxCell id="cTRyyOZCeq1RYRUuSw1o-2" value="OneApp production VPC" style="sketch=0;outlineConnect=0;gradientColor=none;html=1;whiteSpace=wrap;fontSize=12;fontStyle=0;shape=mxgraph.aws4.group;grIcon=mxgraph.aws4.group_vpc;strokeColor=#879196;fillColor=none;verticalAlign=top;align=left;spacingLeft=30;fontColor=#879196;dashed=0;" parent="1" vertex="1">
          <mxGeometry x="550" y="220" width="220" height="130" as="geometry" />
        </mxCell>
        <mxCell id="cTRyyOZCeq1RYRUuSw1o-3" value="" style="edgeStyle=orthogonalEdgeStyle;html=1;endArrow=block;elbow=vertical;startArrow=block;startFill=1;endFill=1;strokeColor=#545B64;rounded=0;entryX=0;entryY=0.462;entryDx=0;entryDy=0;entryPerimeter=0;" parent="1" target="cTRyyOZCeq1RYRUuSw1o-2" edge="1">
          <mxGeometry width="100" relative="1" as="geometry">
            <mxPoint x="350" y="280" as="sourcePoint" />
            <mxPoint x="450" y="280" as="targetPoint" />
          </mxGeometry>
        </mxCell>
        <mxCell id="cTRyyOZCeq1RYRUuSw1o-15" value="?" style="edgeLabel;html=1;align=center;verticalAlign=middle;resizable=0;points=[];" parent="cTRyyOZCeq1RYRUuSw1o-3" vertex="1" connectable="0">
          <mxGeometry x="-0.1204" y="-1" relative="1" as="geometry">
            <mxPoint as="offset" />
          </mxGeometry>
        </mxCell>
        <mxCell id="cTRyyOZCeq1RYRUuSw1o-4" value="end users via ios/android app" style="rounded=1;whiteSpace=wrap;html=1;" parent="1" vertex="1">
          <mxGeometry x="600" y="50" width="120" height="60" as="geometry" />
        </mxCell>
        <mxCell id="cTRyyOZCeq1RYRUuSw1o-5" value="" style="edgeStyle=orthogonalEdgeStyle;html=1;endArrow=block;elbow=vertical;startArrow=block;startFill=1;endFill=1;strokeColor=#545B64;rounded=0;" parent="1" target="cTRyyOZCeq1RYRUuSw1o-2" edge="1">
          <mxGeometry width="100" relative="1" as="geometry">
            <mxPoint x="670" y="130" as="sourcePoint" />
            <mxPoint x="770" y="130" as="targetPoint" />
          </mxGeometry>
        </mxCell>
        <mxCell id="x7VP_ZO8Gfvgv4FTex6w-3" style="edgeStyle=orthogonalEdgeStyle;rounded=0;orthogonalLoop=1;jettySize=auto;html=1;fontColor=#000000;exitX=0;exitY=0.5;exitDx=0;exitDy=0;" edge="1" parent="1" source="x7VP_ZO8Gfvgv4FTex6w-2">
          <mxGeometry relative="1" as="geometry">
            <mxPoint x="-170" y="200" as="targetPoint" />
          </mxGeometry>
        </mxCell>
        <mxCell id="cTRyyOZCeq1RYRUuSw1o-6" value="GitLab Instance &amp;amp; runners" style="rounded=1;whiteSpace=wrap;html=1;fillColor=#fff2cc;strokeColor=#d6b656;" parent="1" vertex="1">
          <mxGeometry x="10" y="260" width="120" height="60" as="geometry" />
        </mxCell>
        <mxCell id="cTRyyOZCeq1RYRUuSw1o-7" value="oneApp BFF" style="whiteSpace=wrap;html=1;aspect=fixed;" parent="1" vertex="1">
          <mxGeometry x="580" y="250" width="80" height="80" as="geometry" />
        </mxCell>
        <mxCell id="cTRyyOZCeq1RYRUuSw1o-8" value="Office ?" style="sketch=0;outlineConnect=0;gradientColor=none;html=1;whiteSpace=wrap;fontSize=12;fontStyle=0;shape=mxgraph.aws4.group;grIcon=mxgraph.aws4.group_vpc;strokeColor=#B6BABF;fillColor=none;verticalAlign=top;align=left;spacingLeft=30;fontColor=#B6BABF;dashed=0;" parent="1" vertex="1">
          <mxGeometry x="-40" y="500" width="420" height="130" as="geometry" />
        </mxCell>
        <mxCell id="cTRyyOZCeq1RYRUuSw1o-9" value="" style="endArrow=classic;startArrow=classic;html=1;rounded=0;" parent="1" source="cTRyyOZCeq1RYRUuSw1o-8" target="cTRyyOZCeq1RYRUuSw1o-1" edge="1">
          <mxGeometry width="50" height="50" relative="1" as="geometry">
            <mxPoint x="120" y="380" as="sourcePoint" />
            <mxPoint x="170" y="330" as="targetPoint" />
          </mxGeometry>
        </mxCell>
        <mxCell id="cTRyyOZCeq1RYRUuSw1o-14" value="Site to Site VPN connection ?" style="edgeLabel;html=1;align=center;verticalAlign=middle;resizable=0;points=[];" parent="cTRyyOZCeq1RYRUuSw1o-9" vertex="1" connectable="0">
          <mxGeometry x="-0.2118" relative="1" as="geometry">
            <mxPoint as="offset" />
          </mxGeometry>
        </mxCell>
        <mxCell id="cTRyyOZCeq1RYRUuSw1o-10" value="hundreds of developers connect to gitlab via https" style="shape=note2;boundedLbl=1;whiteSpace=wrap;html=1;size=25;verticalAlign=top;align=center;" parent="1" vertex="1">
          <mxGeometry x="-150" y="320" width="120" height="100" as="geometry" />
        </mxCell>
        <mxCell id="cTRyyOZCeq1RYRUuSw1o-11" value="gitlab runners allow to execute any docker containter from dockerhub" style="shape=note2;boundedLbl=1;whiteSpace=wrap;html=1;size=25;verticalAlign=top;align=center;" parent="1" vertex="1">
          <mxGeometry x="-150" y="440" width="120" height="100" as="geometry" />
        </mxCell>
        <mxCell id="cTRyyOZCeq1RYRUuSw1o-12" value="developers" style="shape=umlActor;verticalLabelPosition=bottom;verticalAlign=top;html=1;outlineConnect=0;" parent="1" vertex="1">
          <mxGeometry x="55" y="525" width="30" height="60" as="geometry" />
        </mxCell>
        <mxCell id="x7VP_ZO8Gfvgv4FTex6w-5" value="" style="edgeStyle=orthogonalEdgeStyle;rounded=0;orthogonalLoop=1;jettySize=auto;html=1;fontColor=#000000;" edge="1" parent="1" source="cTRyyOZCeq1RYRUuSw1o-13" target="cTRyyOZCeq1RYRUuSw1o-2">
          <mxGeometry relative="1" as="geometry" />
        </mxCell>
        <mxCell id="cTRyyOZCeq1RYRUuSw1o-13" value="end user" style="shape=umlActor;verticalLabelPosition=bottom;verticalAlign=top;html=1;outlineConnect=0;" parent="1" vertex="1">
          <mxGeometry x="560" y="50" width="30" height="60" as="geometry" />
        </mxCell>
        <mxCell id="cTRyyOZCeq1RYRUuSw1o-16" value="Jupiter" style="rounded=1;whiteSpace=wrap;html=1;fillColor=#fff2cc;strokeColor=#d6b656;" parent="1" vertex="1">
          <mxGeometry x="200" y="260" width="120" height="60" as="geometry" />
        </mxCell>
        <mxCell id="cTRyyOZCeq1RYRUuSw1o-17" value="Jupiter allow to execute any shell command (even sudo?)&amp;nbsp;" style="shape=note2;boundedLbl=1;whiteSpace=wrap;html=1;size=25;verticalAlign=top;align=center;" parent="1" vertex="1">
          <mxGeometry x="270" y="370" width="120" height="100" as="geometry" />
        </mxCell>
        <mxCell id="oN1qRCpjBzww5MVaORfB-1" value="&lt;div&gt;&lt;font color=&quot;#000000&quot;&gt;Shared-Prod-Vpc&lt;/font&gt;&lt;/div&gt;" style="points=[[0,0],[0.25,0],[0.5,0],[0.75,0],[1,0],[1,0.25],[1,0.5],[1,0.75],[1,1],[0.75,1],[0.5,1],[0.25,1],[0,1],[0,0.75],[0,0.5],[0,0.25]];outlineConnect=0;gradientColor=none;html=1;whiteSpace=wrap;fontSize=12;fontStyle=0;shape=mxgraph.aws4.group;grIcon=mxgraph.aws4.group_vpc;strokeColor=#248814;fillColor=none;verticalAlign=top;align=left;spacingLeft=30;fontColor=#AAB7B8;dashed=0;" parent="1" vertex="1">
          <mxGeometry x="-1050" y="420" width="890" height="1160" as="geometry" />
        </mxCell>
        <mxCell id="oN1qRCpjBzww5MVaORfB-2" value="&lt;div&gt;Shared-Prod-Pri-Ec1 a/b/c&lt;/div&gt;&lt;div&gt;&lt;br&gt;&lt;/div&gt;" style="points=[[0,0],[0.25,0],[0.5,0],[0.75,0],[1,0],[1,0.25],[1,0.5],[1,0.75],[1,1],[0.75,1],[0.5,1],[0.25,1],[0,1],[0,0.75],[0,0.5],[0,0.25]];outlineConnect=0;gradientColor=none;html=1;whiteSpace=wrap;fontSize=12;fontStyle=0;shape=mxgraph.aws4.group;grIcon=mxgraph.aws4.group_security_group;grStroke=0;strokeColor=#147EBA;fillColor=#E6F2F8;verticalAlign=top;align=left;spacingLeft=30;fontColor=#147EBA;dashed=0;" parent="1" vertex="1">
          <mxGeometry x="-1000" y="860" width="270" height="730" as="geometry" />
        </mxCell>
        <mxCell id="oN1qRCpjBzww5MVaORfB-5" value="Shared-Prod-Pub-Ec1&amp;nbsp;a/b/c" style="points=[[0,0],[0.25,0],[0.5,0],[0.75,0],[1,0],[1,0.25],[1,0.5],[1,0.75],[1,1],[0.75,1],[0.5,1],[0.25,1],[0,1],[0,0.75],[0,0.5],[0,0.25]];outlineConnect=0;gradientColor=none;html=1;whiteSpace=wrap;fontSize=12;fontStyle=0;shape=mxgraph.aws4.group;grIcon=mxgraph.aws4.group_security_group;grStroke=0;strokeColor=#248814;fillColor=#E9F3E6;verticalAlign=top;align=left;spacingLeft=30;fontColor=#248814;dashed=0;" parent="1" vertex="1">
          <mxGeometry x="-1020" y="455" width="240" height="215" as="geometry" />
        </mxCell>
        <mxCell id="oN1qRCpjBzww5MVaORfB-6" value="&lt;div&gt;&lt;div&gt;&lt;div&gt;Shared-Dev-Pri-a/b/c&lt;/div&gt;&lt;/div&gt;&lt;/div&gt;" style="points=[[0,0],[0.25,0],[0.5,0],[0.75,0],[1,0],[1,0.25],[1,0.5],[1,0.75],[1,1],[0.75,1],[0.5,1],[0.25,1],[0,1],[0,0.75],[0,0.5],[0,0.25]];outlineConnect=0;gradientColor=none;html=1;whiteSpace=wrap;fontSize=12;fontStyle=0;shape=mxgraph.aws4.group;grIcon=mxgraph.aws4.group_security_group;grStroke=0;strokeColor=#147EBA;fillColor=#E6F2F8;verticalAlign=top;align=left;spacingLeft=30;fontColor=#147EBA;dashed=0;" parent="1" vertex="1">
          <mxGeometry x="-670" y="860" width="240" height="230" as="geometry" />
        </mxCell>
        <mxCell id="oN1qRCpjBzww5MVaORfB-7" value="&lt;div&gt;Shared-Dev-Pub a/b/c&amp;nbsp;&lt;/div&gt;" style="points=[[0,0],[0.25,0],[0.5,0],[0.75,0],[1,0],[1,0.25],[1,0.5],[1,0.75],[1,1],[0.75,1],[0.5,1],[0.25,1],[0,1],[0,0.75],[0,0.5],[0,0.25]];outlineConnect=0;gradientColor=none;html=1;whiteSpace=wrap;fontSize=12;fontStyle=0;shape=mxgraph.aws4.group;grIcon=mxgraph.aws4.group_security_group;grStroke=0;strokeColor=#248814;fillColor=#E9F3E6;verticalAlign=top;align=left;spacingLeft=30;fontColor=#248814;dashed=0;" parent="1" vertex="1">
          <mxGeometry x="-600" y="462" width="209" height="130" as="geometry" />
        </mxCell>
        <mxCell id="x7VP_ZO8Gfvgv4FTex6w-1" value="&lt;div&gt;shared-prod-ec1b-oneview-esdata&lt;/div&gt;&lt;div&gt;&lt;br&gt;&lt;/div&gt;" style="sketch=0;points=[[0,0,0],[0.25,0,0],[0.5,0,0],[0.75,0,0],[1,0,0],[0,1,0],[0.25,1,0],[0.5,1,0],[0.75,1,0],[1,1,0],[0,0.25,0],[0,0.5,0],[0,0.75,0],[1,0.25,0],[1,0.5,0],[1,0.75,0]];outlineConnect=0;fontColor=#232F3E;gradientColor=#F78E04;gradientDirection=north;fillColor=#D05C17;strokeColor=#ffffff;dashed=0;verticalLabelPosition=bottom;verticalAlign=top;align=center;html=1;fontSize=12;fontStyle=0;aspect=fixed;shape=mxgraph.aws4.resourceIcon;resIcon=mxgraph.aws4.ec2;" vertex="1" parent="1">
          <mxGeometry x="-884" y="890" width="38" height="38" as="geometry" />
        </mxCell>
        <mxCell id="x7VP_ZO8Gfvgv4FTex6w-2" value="" style="swimlane;startSize=0;fontColor=#000000;" vertex="1" parent="1">
          <mxGeometry y="250" width="140" height="80" as="geometry" />
        </mxCell>
        <mxCell id="x7VP_ZO8Gfvgv4FTex6w-4" value="NACL allow all outbound connection" style="shape=note2;boundedLbl=1;whiteSpace=wrap;html=1;size=25;verticalAlign=top;align=center;" vertex="1" parent="1">
          <mxGeometry x="-210" y="110" width="120" height="100" as="geometry" />
        </mxCell>
        <mxCell id="x7VP_ZO8Gfvgv4FTex6w-8" value="Gitlab only used for native client applications (mobile app) build" style="shape=note2;boundedLbl=1;whiteSpace=wrap;html=1;size=25;verticalAlign=top;align=center;" vertex="1" parent="1">
          <mxGeometry y="60" width="170" height="80" as="geometry" />
        </mxCell>
        <mxCell id="x7VP_ZO8Gfvgv4FTex6w-9" value="&lt;div&gt;shared-prod-ec1a-gitlab-server-1&lt;/div&gt;&lt;div&gt;&lt;br&gt;&lt;/div&gt;" style="sketch=0;points=[[0,0,0],[0.25,0,0],[0.5,0,0],[0.75,0,0],[1,0,0],[0,1,0],[0.25,1,0],[0.5,1,0],[0.75,1,0],[1,1,0],[0,0.25,0],[0,0.5,0],[0,0.75,0],[1,0.25,0],[1,0.5,0],[1,0.75,0]];outlineConnect=0;fontColor=#232F3E;gradientColor=#F78E04;gradientDirection=north;fillColor=#D05C17;strokeColor=#ffffff;dashed=0;verticalLabelPosition=bottom;verticalAlign=top;align=center;html=1;fontSize=12;fontStyle=0;aspect=fixed;shape=mxgraph.aws4.resourceIcon;resIcon=mxgraph.aws4.ec2;" vertex="1" parent="1">
          <mxGeometry x="-940" y="500" width="54" height="54" as="geometry" />
        </mxCell>
        <mxCell id="x7VP_ZO8Gfvgv4FTex6w-11" value="shared-prod-ec1a-campaign-esmaster" style="sketch=0;points=[[0,0,0],[0.25,0,0],[0.5,0,0],[0.75,0,0],[1,0,0],[0,1,0],[0.25,1,0],[0.5,1,0],[0.75,1,0],[1,1,0],[0,0.25,0],[0,0.5,0],[0,0.75,0],[1,0.25,0],[1,0.5,0],[1,0.75,0]];outlineConnect=0;fontColor=#232F3E;gradientColor=#F78E04;gradientDirection=north;fillColor=#D05C17;strokeColor=#ffffff;dashed=0;verticalLabelPosition=bottom;verticalAlign=top;align=center;html=1;fontSize=12;fontStyle=0;aspect=fixed;shape=mxgraph.aws4.resourceIcon;resIcon=mxgraph.aws4.ec2;" vertex="1" parent="1">
          <mxGeometry x="-884" y="1206" width="38" height="38" as="geometry" />
        </mxCell>
        <mxCell id="x7VP_ZO8Gfvgv4FTex6w-13" value="&lt;div&gt;&lt;span&gt;	&lt;/span&gt;&lt;/div&gt;&lt;div&gt;shared-prod-ec1-halnginx&lt;/div&gt;" style="sketch=0;points=[[0,0,0],[0.25,0,0],[0.5,0,0],[0.75,0,0],[1,0,0],[0,1,0],[0.25,1,0],[0.5,1,0],[0.75,1,0],[1,1,0],[0,0.25,0],[0,0.5,0],[0,0.75,0],[1,0.25,0],[1,0.5,0],[1,0.75,0]];outlineConnect=0;fontColor=#232F3E;gradientColor=#F78E04;gradientDirection=north;fillColor=#D05C17;strokeColor=#ffffff;dashed=0;verticalLabelPosition=bottom;verticalAlign=top;align=center;html=1;fontSize=12;fontStyle=0;aspect=fixed;shape=mxgraph.aws4.resourceIcon;resIcon=mxgraph.aws4.ec2;" vertex="1" parent="1">
          <mxGeometry x="-886" y="950" width="38" height="38" as="geometry" />
        </mxCell>
        <mxCell id="x7VP_ZO8Gfvgv4FTex6w-14" value="shared-prod-ec1a-gdc-elasticsearch-esmaster" style="sketch=0;points=[[0,0,0],[0.25,0,0],[0.5,0,0],[0.75,0,0],[1,0,0],[0,1,0],[0.25,1,0],[0.5,1,0],[0.75,1,0],[1,1,0],[0,0.25,0],[0,0.5,0],[0,0.75,0],[1,0.25,0],[1,0.5,0],[1,0.75,0]];outlineConnect=0;fontColor=#232F3E;gradientColor=#F78E04;gradientDirection=north;fillColor=#D05C17;strokeColor=#ffffff;dashed=0;verticalLabelPosition=bottom;verticalAlign=top;align=center;html=1;fontSize=12;fontStyle=0;aspect=fixed;shape=mxgraph.aws4.resourceIcon;resIcon=mxgraph.aws4.ec2;" vertex="1" parent="1">
          <mxGeometry x="-886" y="1080" width="38" height="38" as="geometry" />
        </mxCell>
        <mxCell id="x7VP_ZO8Gfvgv4FTex6w-15" value="&lt;div&gt;shared-prod-ec1a-gdc-elasticsearch-data&lt;/div&gt;" style="sketch=0;points=[[0,0,0],[0.25,0,0],[0.5,0,0],[0.75,0,0],[1,0,0],[0,1,0],[0.25,1,0],[0.5,1,0],[0.75,1,0],[1,1,0],[0,0.25,0],[0,0.5,0],[0,0.75,0],[1,0.25,0],[1,0.5,0],[1,0.75,0]];outlineConnect=0;fontColor=#232F3E;gradientColor=#F78E04;gradientDirection=north;fillColor=#D05C17;strokeColor=#ffffff;dashed=0;verticalLabelPosition=bottom;verticalAlign=top;align=center;html=1;fontSize=12;fontStyle=0;aspect=fixed;shape=mxgraph.aws4.resourceIcon;resIcon=mxgraph.aws4.ec2;direction=south;" vertex="1" parent="1">
          <mxGeometry x="-880" y="1270" width="39" height="39" as="geometry" />
        </mxCell>
        <mxCell id="x7VP_ZO8Gfvgv4FTex6w-16" value="&lt;div&gt;shared-prod-ec1-oneview-logstash&lt;/div&gt;" style="sketch=0;points=[[0,0,0],[0.25,0,0],[0.5,0,0],[0.75,0,0],[1,0,0],[0,1,0],[0.25,1,0],[0.5,1,0],[0.75,1,0],[1,1,0],[0,0.25,0],[0,0.5,0],[0,0.75,0],[1,0.25,0],[1,0.5,0],[1,0.75,0]];outlineConnect=0;fontColor=#232F3E;gradientColor=#F78E04;gradientDirection=north;fillColor=#D05C17;strokeColor=#ffffff;dashed=0;verticalLabelPosition=bottom;verticalAlign=top;align=center;html=1;fontSize=12;fontStyle=0;aspect=fixed;shape=mxgraph.aws4.resourceIcon;resIcon=mxgraph.aws4.ec2;" vertex="1" parent="1">
          <mxGeometry x="-886" y="1020" width="38" height="38" as="geometry" />
        </mxCell>
        <mxCell id="x7VP_ZO8Gfvgv4FTex6w-17" value="&lt;div&gt;shared-prod-ec1a-campaign-esdata&lt;/div&gt;" style="sketch=0;points=[[0,0,0],[0.25,0,0],[0.5,0,0],[0.75,0,0],[1,0,0],[0,1,0],[0.25,1,0],[0.5,1,0],[0.75,1,0],[1,1,0],[0,0.25,0],[0,0.5,0],[0,0.75,0],[1,0.25,0],[1,0.5,0],[1,0.75,0]];outlineConnect=0;fontColor=#232F3E;gradientColor=#F78E04;gradientDirection=north;fillColor=#D05C17;strokeColor=#ffffff;dashed=0;verticalLabelPosition=bottom;verticalAlign=top;align=center;html=1;fontSize=12;fontStyle=0;aspect=fixed;shape=mxgraph.aws4.resourceIcon;resIcon=mxgraph.aws4.ec2;" vertex="1" parent="1">
          <mxGeometry x="-884" y="1140" width="38" height="38" as="geometry" />
        </mxCell>
        <mxCell id="x7VP_ZO8Gfvgv4FTex6w-18" value="&lt;div&gt;shared-prod-ec1b-nifi-kafka&lt;/div&gt;" style="sketch=0;points=[[0,0,0],[0.25,0,0],[0.5,0,0],[0.75,0,0],[1,0,0],[0,1,0],[0.25,1,0],[0.5,1,0],[0.75,1,0],[1,1,0],[0,0.25,0],[0,0.5,0],[0,0.75,0],[1,0.25,0],[1,0.5,0],[1,0.75,0]];outlineConnect=0;fontColor=#232F3E;gradientColor=#F78E04;gradientDirection=north;fillColor=#D05C17;strokeColor=#ffffff;dashed=0;verticalLabelPosition=bottom;verticalAlign=top;align=center;html=1;fontSize=12;fontStyle=0;aspect=fixed;shape=mxgraph.aws4.resourceIcon;resIcon=mxgraph.aws4.ec2;" vertex="1" parent="1">
          <mxGeometry x="-879" y="1340" width="38" height="38" as="geometry" />
        </mxCell>
      </root>
    </mxGraphModel>
  </diagram>
</mxfile>
